ISO-10303-21;
HEADER;
/* Generated by software containing ST-Developer
 * from STEP Tools, Inc. (www.steptools.com) 
 */
/* OPTION: using custom renumber hook */

FILE_DESCRIPTION(
/* description */ ('STEP AP242 Edition 2',
'CAx-IF Rec.Pracs.---Representation and Presentation of Product Manufa
cturing Information (PMI)---4.0---2014-10-13',
'CAx-IF Rec.Pracs.---3D Tessellated Geometry---0.4---2014-09-14','2;1',
'CAx-IF Rec.Pracs.---User Defined Attributes---1.5---2016-08-15'),
/* implementation_level */ '2;1');

FILE_NAME(
/* name */ '692e629fe78edae7cd8c8bad',
/* time_stamp */ '2025-12-02T03:53:03Z',
/* author */ (''),
/* organization */ (''),
/* preprocessor_version */ 'ST-DEVELOPER v20',
/* originating_system */ 'ONSHAPE BY PTC INC, 1.207',
/* authorisation */ '  ');

FILE_SCHEMA (('AP242_MANAGED_MODEL_BASED_3D_ENGINEERING_MIM_LF { 1 0 10303 442 3 1 4 }'));
ENDSEC;

DATA;
#10=SHAPE_REPRESENTATION_RELATIONSHIP('','',#334,#11);
#11=ADVANCED_BREP_SHAPE_REPRESENTATION('',(#332),#569);
#12=LINE('',#485,#32);
#13=LINE('',#488,#33);
#14=LINE('',#490,#34);
#15=LINE('',#492,#35);
#16=LINE('',#522,#36);
#17=LINE('',#526,#37);
#18=LINE('',#530,#38);
#19=LINE('',#534,#39);
#20=LINE('',#539,#40);
#21=LINE('',#543,#41);
#22=LINE('',#547,#42);
#23=LINE('',#551,#43);
#24=LINE('',#553,#44);
#25=LINE('',#554,#45);
#26=LINE('',#556,#46);
#27=LINE('',#558,#47);
#28=LINE('',#560,#48);
#29=LINE('',#562,#49);
#30=LINE('',#564,#50);
#31=LINE('',#566,#51);
#32=VECTOR('',#386,1.);
#33=VECTOR('',#387,1.);
#34=VECTOR('',#388,1.);
#35=VECTOR('',#389,1.);
#36=VECTOR('',#430,1.);
#37=VECTOR('',#433,1.);
#38=VECTOR('',#436,1.);
#39=VECTOR('',#439,1.);
#40=VECTOR('',#444,1.);
#41=VECTOR('',#447,1.);
#42=VECTOR('',#450,1.);
#43=VECTOR('',#453,1.);
#44=VECTOR('',#456,1.);
#45=VECTOR('',#457,1.);
#46=VECTOR('',#460,1.);
#47=VECTOR('',#463,1.);
#48=VECTOR('',#466,1.);
#49=VECTOR('',#469,1.);
#50=VECTOR('',#472,1.);
#51=VECTOR('',#475,1.);
#52=PLANE('',#339);
#53=PLANE('',#340);
#54=PLANE('',#342);
#55=PLANE('',#346);
#56=PLANE('',#348);
#57=PLANE('',#354);
#58=PLANE('',#358);
#59=PLANE('',#363);
#60=PLANE('',#368);
#61=PLANE('',#370);
#62=PLANE('',#372);
#63=PLANE('',#374);
#64=ORIENTED_EDGE('',*,*,#142,.F.);
#65=ORIENTED_EDGE('',*,*,#143,.T.);
#66=ORIENTED_EDGE('',*,*,#144,.F.);
#67=ORIENTED_EDGE('',*,*,#145,.T.);
#68=ORIENTED_EDGE('',*,*,#146,.T.);
#69=ORIENTED_EDGE('',*,*,#147,.T.);
#70=ORIENTED_EDGE('',*,*,#142,.T.);
#71=ORIENTED_EDGE('',*,*,#147,.F.);
#72=ORIENTED_EDGE('',*,*,#148,.T.);
#73=ORIENTED_EDGE('',*,*,#145,.F.);
#74=ORIENTED_EDGE('',*,*,#149,.T.);
#75=ORIENTED_EDGE('',*,*,#150,.T.);
#76=ORIENTED_EDGE('',*,*,#149,.F.);
#77=ORIENTED_EDGE('',*,*,#144,.T.);
#78=ORIENTED_EDGE('',*,*,#148,.F.);
#79=ORIENTED_EDGE('',*,*,#146,.F.);
#80=ORIENTED_EDGE('',*,*,#151,.T.);
#81=ORIENTED_EDGE('',*,*,#152,.T.);
#82=ORIENTED_EDGE('',*,*,#153,.F.);
#83=ORIENTED_EDGE('',*,*,#154,.T.);
#84=ORIENTED_EDGE('',*,*,#152,.F.);
#85=ORIENTED_EDGE('',*,*,#153,.T.);
#86=ORIENTED_EDGE('',*,*,#151,.F.);
#87=ORIENTED_EDGE('',*,*,#155,.T.);
#88=ORIENTED_EDGE('',*,*,#154,.F.);
#89=ORIENTED_EDGE('',*,*,#156,.T.);
#90=ORIENTED_EDGE('',*,*,#155,.F.);
#91=ORIENTED_EDGE('',*,*,#157,.F.);
#92=ORIENTED_EDGE('',*,*,#158,.T.);
#93=ORIENTED_EDGE('',*,*,#159,.F.);
#94=ORIENTED_EDGE('',*,*,#160,.T.);
#95=ORIENTED_EDGE('',*,*,#161,.F.);
#96=ORIENTED_EDGE('',*,*,#162,.F.);
#97=ORIENTED_EDGE('',*,*,#163,.F.);
#98=ORIENTED_EDGE('',*,*,#164,.F.);
#99=ORIENTED_EDGE('',*,*,#150,.F.);
#100=ORIENTED_EDGE('',*,*,#165,.T.);
#101=ORIENTED_EDGE('',*,*,#166,.T.);
#102=ORIENTED_EDGE('',*,*,#167,.T.);
#103=ORIENTED_EDGE('',*,*,#168,.T.);
#104=ORIENTED_EDGE('',*,*,#169,.T.);
#105=ORIENTED_EDGE('',*,*,#170,.F.);
#106=ORIENTED_EDGE('',*,*,#171,.T.);
#107=ORIENTED_EDGE('',*,*,#172,.F.);
#108=ORIENTED_EDGE('',*,*,#156,.F.);
#109=ORIENTED_EDGE('',*,*,#158,.F.);
#110=ORIENTED_EDGE('',*,*,#173,.F.);
#111=ORIENTED_EDGE('',*,*,#172,.T.);
#112=ORIENTED_EDGE('',*,*,#174,.T.);
#113=ORIENTED_EDGE('',*,*,#159,.T.);
#114=ORIENTED_EDGE('',*,*,#174,.F.);
#115=ORIENTED_EDGE('',*,*,#171,.F.);
#116=ORIENTED_EDGE('',*,*,#175,.T.);
#117=ORIENTED_EDGE('',*,*,#160,.F.);
#118=ORIENTED_EDGE('',*,*,#175,.F.);
#119=ORIENTED_EDGE('',*,*,#170,.T.);
#120=ORIENTED_EDGE('',*,*,#176,.T.);
#121=ORIENTED_EDGE('',*,*,#161,.T.);
#122=ORIENTED_EDGE('',*,*,#176,.F.);
#123=ORIENTED_EDGE('',*,*,#169,.F.);
#124=ORIENTED_EDGE('',*,*,#177,.T.);
#125=ORIENTED_EDGE('',*,*,#162,.T.);
#126=ORIENTED_EDGE('',*,*,#177,.F.);
#127=ORIENTED_EDGE('',*,*,#168,.F.);
#128=ORIENTED_EDGE('',*,*,#178,.T.);
#129=ORIENTED_EDGE('',*,*,#143,.F.);
#130=ORIENTED_EDGE('',*,*,#163,.T.);
#131=ORIENTED_EDGE('',*,*,#178,.F.);
#132=ORIENTED_EDGE('',*,*,#167,.F.);
#133=ORIENTED_EDGE('',*,*,#179,.T.);
#134=ORIENTED_EDGE('',*,*,#164,.T.);
#135=ORIENTED_EDGE('',*,*,#179,.F.);
#136=ORIENTED_EDGE('',*,*,#166,.F.);
#137=ORIENTED_EDGE('',*,*,#180,.T.);
#138=ORIENTED_EDGE('',*,*,#157,.T.);
#139=ORIENTED_EDGE('',*,*,#180,.F.);
#140=ORIENTED_EDGE('',*,*,#165,.F.);
#141=ORIENTED_EDGE('',*,*,#173,.T.);
#142=EDGE_CURVE('',#181,#181,#210,.T.);
#143=EDGE_CURVE('',#182,#182,#211,.T.);
#144=EDGE_CURVE('',#183,#184,#12,.T.);
#145=EDGE_CURVE('',#183,#185,#13,.T.);
#146=EDGE_CURVE('',#185,#186,#14,.T.);
#147=EDGE_CURVE('',#186,#184,#15,.T.);
#148=EDGE_CURVE('',#186,#184,#212,.T.);
#149=EDGE_CURVE('',#183,#185,#213,.T.);
#150=EDGE_CURVE('',#187,#187,#214,.T.);
#151=EDGE_CURVE('',#188,#188,#215,.T.);
#152=EDGE_CURVE('',#189,#189,#216,.T.);
#153=EDGE_CURVE('',#190,#190,#217,.T.);
#154=EDGE_CURVE('',#191,#191,#218,.T.);
#155=EDGE_CURVE('',#192,#192,#219,.T.);
#156=EDGE_CURVE('',#193,#193,#220,.T.);
#157=EDGE_CURVE('',#194,#195,#221,.T.);
#158=EDGE_CURVE('',#194,#196,#16,.T.);
#159=EDGE_CURVE('',#197,#196,#222,.T.);
#160=EDGE_CURVE('',#197,#198,#17,.T.);
#161=EDGE_CURVE('',#199,#198,#223,.T.);
#162=EDGE_CURVE('',#200,#199,#18,.T.);
#163=EDGE_CURVE('',#201,#200,#224,.T.);
#164=EDGE_CURVE('',#195,#201,#19,.T.);
#165=EDGE_CURVE('',#202,#203,#225,.T.);
#166=EDGE_CURVE('',#203,#204,#20,.T.);
#167=EDGE_CURVE('',#204,#205,#226,.T.);
#168=EDGE_CURVE('',#205,#206,#21,.T.);
#169=EDGE_CURVE('',#206,#207,#227,.T.);
#170=EDGE_CURVE('',#208,#207,#22,.T.);
#171=EDGE_CURVE('',#208,#209,#228,.T.);
#172=EDGE_CURVE('',#202,#209,#23,.T.);
#173=EDGE_CURVE('',#202,#194,#24,.T.);
#174=EDGE_CURVE('',#209,#196,#25,.T.);
#175=EDGE_CURVE('',#208,#197,#26,.T.);
#176=EDGE_CURVE('',#207,#198,#27,.T.);
#177=EDGE_CURVE('',#206,#199,#28,.T.);
#178=EDGE_CURVE('',#205,#200,#29,.T.);
#179=EDGE_CURVE('',#204,#201,#30,.T.);
#180=EDGE_CURVE('',#203,#195,#31,.T.);
#181=VERTEX_POINT('',#481);
#182=VERTEX_POINT('',#483);
#183=VERTEX_POINT('',#486);
#184=VERTEX_POINT('',#487);
#185=VERTEX_POINT('',#489);
#186=VERTEX_POINT('',#491);
#187=VERTEX_POINT('',#499);
#188=VERTEX_POINT('',#502);
#189=VERTEX_POINT('',#505);
#190=VERTEX_POINT('',#507);
#191=VERTEX_POINT('',#510);
#192=VERTEX_POINT('',#514);
#193=VERTEX_POINT('',#517);
#194=VERTEX_POINT('',#520);
#195=VERTEX_POINT('',#521);
#196=VERTEX_POINT('',#523);
#197=VERTEX_POINT('',#525);
#198=VERTEX_POINT('',#527);
#199=VERTEX_POINT('',#529);
#200=VERTEX_POINT('',#531);
#201=VERTEX_POINT('',#533);
#202=VERTEX_POINT('',#537);
#203=VERTEX_POINT('',#538);
#204=VERTEX_POINT('',#540);
#205=VERTEX_POINT('',#542);
#206=VERTEX_POINT('',#544);
#207=VERTEX_POINT('',#546);
#208=VERTEX_POINT('',#548);
#209=VERTEX_POINT('',#550);
#210=CIRCLE('',#337,0.001325);
#211=CIRCLE('',#338,0.001325);
#212=CIRCLE('',#341,0.0022);
#213=CIRCLE('',#343,0.0022);
#214=CIRCLE('',#345,0.0022);
#215=CIRCLE('',#347,0.00221);
#216=CIRCLE('',#349,0.004);
#217=CIRCLE('',#350,0.00221);
#218=CIRCLE('',#352,0.004);
#219=CIRCLE('',#355,0.0042545);
#220=CIRCLE('',#357,0.0042545);
#221=CIRCLE('',#359,0.00757);
#222=CIRCLE('',#360,0.00757);
#223=CIRCLE('',#361,0.00757);
#224=CIRCLE('',#362,0.00757);
#225=CIRCLE('',#364,0.00757);
#226=CIRCLE('',#365,0.00757);
#227=CIRCLE('',#366,0.00757);
#228=CIRCLE('',#367,0.00757);
#229=EDGE_LOOP('',(#64));
#230=EDGE_LOOP('',(#65));
#231=EDGE_LOOP('',(#66,#67,#68,#69));
#232=EDGE_LOOP('',(#70));
#233=EDGE_LOOP('',(#71,#72));
#234=EDGE_LOOP('',(#73,#74));
#235=EDGE_LOOP('',(#75));
#236=EDGE_LOOP('',(#76,#77,#78,#79));
#237=EDGE_LOOP('',(#80));
#238=EDGE_LOOP('',(#81));
#239=EDGE_LOOP('',(#82));
#240=EDGE_LOOP('',(#83));
#241=EDGE_LOOP('',(#84));
#242=EDGE_LOOP('',(#85));
#243=EDGE_LOOP('',(#86));
#244=EDGE_LOOP('',(#87));
#245=EDGE_LOOP('',(#88));
#246=EDGE_LOOP('',(#89));
#247=EDGE_LOOP('',(#90));
#248=EDGE_LOOP('',(#91,#92,#93,#94,#95,#96,#97,#98));
#249=EDGE_LOOP('',(#99));
#250=EDGE_LOOP('',(#100,#101,#102,#103,#104,#105,#106,#107));
#251=EDGE_LOOP('',(#108));
#252=EDGE_LOOP('',(#109,#110,#111,#112));
#253=EDGE_LOOP('',(#113,#114,#115,#116));
#254=EDGE_LOOP('',(#117,#118,#119,#120));
#255=EDGE_LOOP('',(#121,#122,#123,#124));
#256=EDGE_LOOP('',(#125,#126,#127,#128));
#257=EDGE_LOOP('',(#129));
#258=EDGE_LOOP('',(#130,#131,#132,#133));
#259=EDGE_LOOP('',(#134,#135,#136,#137));
#260=EDGE_LOOP('',(#138,#139,#140,#141));
#261=FACE_BOUND('',#229,.T.);
#262=FACE_BOUND('',#230,.T.);
#263=FACE_BOUND('',#231,.T.);
#264=FACE_BOUND('',#232,.T.);
#265=FACE_BOUND('',#233,.T.);
#266=FACE_BOUND('',#234,.T.);
#267=FACE_BOUND('',#235,.T.);
#268=FACE_BOUND('',#236,.T.);
#269=FACE_BOUND('',#237,.T.);
#270=FACE_BOUND('',#238,.T.);
#271=FACE_BOUND('',#239,.T.);
#272=FACE_BOUND('',#240,.T.);
#273=FACE_BOUND('',#241,.T.);
#274=FACE_BOUND('',#242,.T.);
#275=FACE_BOUND('',#243,.T.);
#276=FACE_BOUND('',#244,.T.);
#277=FACE_BOUND('',#245,.T.);
#278=FACE_BOUND('',#246,.T.);
#279=FACE_BOUND('',#247,.T.);
#280=FACE_BOUND('',#248,.T.);
#281=FACE_BOUND('',#249,.T.);
#282=FACE_BOUND('',#250,.T.);
#283=FACE_BOUND('',#251,.T.);
#284=FACE_BOUND('',#252,.T.);
#285=FACE_BOUND('',#253,.T.);
#286=FACE_BOUND('',#254,.T.);
#287=FACE_BOUND('',#255,.T.);
#288=FACE_BOUND('',#256,.T.);
#289=FACE_BOUND('',#257,.T.);
#290=FACE_BOUND('',#258,.T.);
#291=FACE_BOUND('',#259,.T.);
#292=FACE_BOUND('',#260,.T.);
#293=CYLINDRICAL_SURFACE('',#336,0.001325);
#294=CYLINDRICAL_SURFACE('',#344,0.0022);
#295=CYLINDRICAL_SURFACE('',#351,0.004);
#296=CYLINDRICAL_SURFACE('',#353,0.00221);
#297=CYLINDRICAL_SURFACE('',#356,0.0042545);
#298=CYLINDRICAL_SURFACE('',#369,0.00757);
#299=CYLINDRICAL_SURFACE('',#371,0.00757);
#300=CYLINDRICAL_SURFACE('',#373,0.00757);
#301=CYLINDRICAL_SURFACE('',#375,0.00757);
#302=ADVANCED_FACE('',(#261,#262),#293,.F.);
#303=ADVANCED_FACE('',(#263,#264),#52,.F.);
#304=ADVANCED_FACE('',(#265),#53,.T.);
#305=ADVANCED_FACE('',(#266),#54,.T.);
#306=ADVANCED_FACE('',(#267,#268),#294,.F.);
#307=ADVANCED_FACE('',(#269),#55,.T.);
#308=ADVANCED_FACE('',(#270,#271),#56,.T.);
#309=ADVANCED_FACE('',(#272,#273),#295,.T.);
#310=ADVANCED_FACE('',(#274,#275),#296,.F.);
#311=ADVANCED_FACE('',(#276,#277),#57,.T.);
#312=ADVANCED_FACE('',(#278,#279),#297,.T.);
#313=ADVANCED_FACE('',(#280,#281),#58,.F.);
#314=ADVANCED_FACE('',(#282,#283),#59,.T.);
#315=ADVANCED_FACE('',(#284),#60,.T.);
#316=ADVANCED_FACE('',(#285),#298,.T.);
#317=ADVANCED_FACE('',(#286),#61,.T.);
#318=ADVANCED_FACE('',(#287),#299,.T.);
#319=ADVANCED_FACE('',(#288,#289),#62,.F.);
#320=ADVANCED_FACE('',(#290),#300,.T.);
#321=ADVANCED_FACE('',(#291),#63,.F.);
#322=ADVANCED_FACE('',(#292),#301,.T.);
#323=CLOSED_SHELL('',(#302,#303,#304,#305,#306,#307,#308,#309,#310,#311,
#312,#313,#314,#315,#316,#317,#318,#319,#320,#321,#322));
#324=STYLED_ITEM('',(#325),#332);
#325=PRESENTATION_STYLE_ASSIGNMENT((#326));
#326=SURFACE_STYLE_USAGE(.BOTH.,#327);
#327=SURFACE_SIDE_STYLE('',(#328));
#328=SURFACE_STYLE_FILL_AREA(#329);
#329=FILL_AREA_STYLE('',(#330));
#330=FILL_AREA_STYLE_COLOUR('',#331);
#331=COLOUR_RGB('',0.8,0.8,0.8);
#332=MANIFOLD_SOLID_BREP('Hub',#323);
#333=SHAPE_DEFINITION_REPRESENTATION(#574,#334);
#334=SHAPE_REPRESENTATION('Hub',(#335),#569);
#335=AXIS2_PLACEMENT_3D('',#478,#376,#377);
#336=AXIS2_PLACEMENT_3D('',#479,#378,#379);
#337=AXIS2_PLACEMENT_3D('',#480,#380,#381);
#338=AXIS2_PLACEMENT_3D('',#482,#382,#383);
#339=AXIS2_PLACEMENT_3D('',#484,#384,#385);
#340=AXIS2_PLACEMENT_3D('',#493,#390,#391);
#341=AXIS2_PLACEMENT_3D('',#494,#392,#393);
#342=AXIS2_PLACEMENT_3D('',#495,#394,#395);
#343=AXIS2_PLACEMENT_3D('',#496,#396,#397);
#344=AXIS2_PLACEMENT_3D('',#497,#398,#399);
#345=AXIS2_PLACEMENT_3D('',#498,#400,#401);
#346=AXIS2_PLACEMENT_3D('',#500,#402,#403);
#347=AXIS2_PLACEMENT_3D('',#501,#404,#405);
#348=AXIS2_PLACEMENT_3D('',#503,#406,#407);
#349=AXIS2_PLACEMENT_3D('',#504,#408,#409);
#350=AXIS2_PLACEMENT_3D('',#506,#410,#411);
#351=AXIS2_PLACEMENT_3D('',#508,#412,#413);
#352=AXIS2_PLACEMENT_3D('',#509,#414,#415);
#353=AXIS2_PLACEMENT_3D('',#511,#416,#417);
#354=AXIS2_PLACEMENT_3D('',#512,#418,#419);
#355=AXIS2_PLACEMENT_3D('',#513,#420,#421);
#356=AXIS2_PLACEMENT_3D('',#515,#422,#423);
#357=AXIS2_PLACEMENT_3D('',#516,#424,#425);
#358=AXIS2_PLACEMENT_3D('',#518,#426,#427);
#359=AXIS2_PLACEMENT_3D('',#519,#428,#429);
#360=AXIS2_PLACEMENT_3D('',#524,#431,#432);
#361=AXIS2_PLACEMENT_3D('',#528,#434,#435);
#362=AXIS2_PLACEMENT_3D('',#532,#437,#438);
#363=AXIS2_PLACEMENT_3D('',#535,#440,#441);
#364=AXIS2_PLACEMENT_3D('',#536,#442,#443);
#365=AXIS2_PLACEMENT_3D('',#541,#445,#446);
#366=AXIS2_PLACEMENT_3D('',#545,#448,#449);
#367=AXIS2_PLACEMENT_3D('',#549,#451,#452);
#368=AXIS2_PLACEMENT_3D('',#552,#454,#455);
#369=AXIS2_PLACEMENT_3D('',#555,#458,#459);
#370=AXIS2_PLACEMENT_3D('',#557,#461,#462);
#371=AXIS2_PLACEMENT_3D('',#559,#464,#465);
#372=AXIS2_PLACEMENT_3D('',#561,#467,#468);
#373=AXIS2_PLACEMENT_3D('',#563,#470,#471);
#374=AXIS2_PLACEMENT_3D('',#565,#473,#474);
#375=AXIS2_PLACEMENT_3D('',#567,#476,#477);
#376=DIRECTION('',(0.,0.,1.));
#377=DIRECTION('',(1.,0.,0.));
#378=DIRECTION('',(0.,-1.,0.));
#379=DIRECTION('',(0.,0.,-1.));
#380=DIRECTION('',(-1.55282660436547E-16,-1.,0.));
#381=DIRECTION('',(1.,-1.55282660436547E-16,0.));
#382=DIRECTION('',(0.,-1.,0.));
#383=DIRECTION('',(0.,0.,-1.));
#384=DIRECTION('',(0.,-1.,0.));
#385=DIRECTION('',(1.,0.,0.));
#386=DIRECTION('',(0.,0.,-1.));
#387=DIRECTION('',(1.,-1.55282660436547E-16,0.));
#388=DIRECTION('',(0.,0.,-1.));
#389=DIRECTION('',(-1.,1.55282660436547E-16,0.));
#390=DIRECTION('',(0.,0.,-1.));
#391=DIRECTION('',(1.,0.,0.));
#392=DIRECTION('',(0.,0.,-1.));
#393=DIRECTION('',(-1.,0.,0.));
#394=DIRECTION('',(0.,0.,-1.));
#395=DIRECTION('',(1.,0.,0.));
#396=DIRECTION('',(0.,0.,-1.));
#397=DIRECTION('',(-1.,0.,0.));
#398=DIRECTION('',(0.,0.,-1.));
#399=DIRECTION('',(-1.,0.,0.));
#400=DIRECTION('',(0.,0.,-1.));
#401=DIRECTION('',(-1.,0.,0.));
#402=DIRECTION('',(0.,0.,1.));
#403=DIRECTION('',(1.,0.,0.));
#404=DIRECTION('',(0.,0.,1.));
#405=DIRECTION('',(1.,0.,0.));
#406=DIRECTION('',(0.,0.,1.));
#407=DIRECTION('',(1.,0.,0.));
#408=DIRECTION('',(0.,0.,1.));
#409=DIRECTION('',(1.,0.,0.));
#410=DIRECTION('',(0.,0.,1.));
#411=DIRECTION('',(1.,0.,0.));
#412=DIRECTION('',(0.,0.,-1.));
#413=DIRECTION('',(-1.,0.,0.));
#414=DIRECTION('',(0.,0.,1.));
#415=DIRECTION('',(1.,0.,0.));
#416=DIRECTION('',(0.,0.,-1.));
#417=DIRECTION('',(-1.,0.,0.));
#418=DIRECTION('',(0.,0.,1.));
#419=DIRECTION('',(1.,0.,0.));
#420=DIRECTION('',(0.,0.,1.));
#421=DIRECTION('',(1.,0.,0.));
#422=DIRECTION('',(0.,0.,-1.));
#423=DIRECTION('',(-1.,0.,0.));
#424=DIRECTION('',(0.,0.,1.));
#425=DIRECTION('',(1.,0.,0.));
#426=DIRECTION('',(0.,0.,1.));
#427=DIRECTION('',(1.,0.,0.));
#428=DIRECTION('',(0.,0.,1.));
#429=DIRECTION('',(1.,0.,0.));
#430=DIRECTION('',(1.,0.,0.));
#431=DIRECTION('',(0.,0.,1.));
#432=DIRECTION('',(1.,0.,0.));
#433=DIRECTION('',(-2.14540419870142E-16,-1.,0.));
#434=DIRECTION('',(0.,0.,1.));
#435=DIRECTION('',(1.,0.,0.));
#436=DIRECTION('',(1.,0.,0.));
#437=DIRECTION('',(0.,0.,1.));
#438=DIRECTION('',(1.,0.,0.));
#439=DIRECTION('',(-2.14540419870142E-16,-1.,0.));
#440=DIRECTION('',(0.,0.,1.));
#441=DIRECTION('',(1.,0.,0.));
#442=DIRECTION('',(0.,0.,1.));
#443=DIRECTION('',(1.,0.,0.));
#444=DIRECTION('',(-2.14540419870142E-16,-1.,0.));
#445=DIRECTION('',(0.,0.,1.));
#446=DIRECTION('',(1.,0.,0.));
#447=DIRECTION('',(1.,0.,0.));
#448=DIRECTION('',(0.,0.,1.));
#449=DIRECTION('',(1.,0.,0.));
#450=DIRECTION('',(-2.14540419870142E-16,-1.,0.));
#451=DIRECTION('',(0.,0.,1.));
#452=DIRECTION('',(1.,0.,0.));
#453=DIRECTION('',(1.,0.,0.));
#454=DIRECTION('',(0.,1.,0.));
#455=DIRECTION('',(0.,0.,1.));
#456=DIRECTION('',(0.,0.,-1.));
#457=DIRECTION('',(0.,0.,-1.));
#458=DIRECTION('',(0.,0.,-1.));
#459=DIRECTION('',(-1.,0.,0.));
#460=DIRECTION('',(0.,0.,-1.));
#461=DIRECTION('',(1.,0.,0.));
#462=DIRECTION('',(0.,1.,0.));
#463=DIRECTION('',(0.,0.,-1.));
#464=DIRECTION('',(0.,0.,-1.));
#465=DIRECTION('',(-1.,0.,0.));
#466=DIRECTION('',(0.,0.,-1.));
#467=DIRECTION('',(0.,1.,0.));
#468=DIRECTION('',(0.,0.,1.));
#469=DIRECTION('',(0.,0.,-1.));
#470=DIRECTION('',(0.,0.,-1.));
#471=DIRECTION('',(-1.,0.,0.));
#472=DIRECTION('',(0.,0.,-1.));
#473=DIRECTION('',(1.,0.,0.));
#474=DIRECTION('',(0.,1.,0.));
#475=DIRECTION('',(0.,0.,-1.));
#476=DIRECTION('',(0.,0.,-1.));
#477=DIRECTION('',(-1.,0.,0.));
#478=CARTESIAN_POINT('',(0.,0.,0.));
#479=CARTESIAN_POINT('',(0.,-5.E-5,0.002835));
#480=CARTESIAN_POINT('',(0.,-0.0017,0.002835));
#481=CARTESIAN_POINT('',(0.001325,-0.0017,0.002835));
#482=CARTESIAN_POINT('',(0.,-0.0064,0.002835));
#483=CARTESIAN_POINT('',(0.,-0.0064,0.00151));
#484=CARTESIAN_POINT('',(0.,-0.0017,0.011252));
#485=CARTESIAN_POINT('',(-0.00139642400437689,-0.0017,0.011252));
#486=CARTESIAN_POINT('',(-0.00139642400437689,-0.0017,0.01125));
#487=CARTESIAN_POINT('',(-0.00139642400437689,-0.0017,0.0015));
#488=CARTESIAN_POINT('',(0.,-0.0017,0.01125));
#489=CARTESIAN_POINT('',(0.00139642400437689,-0.0017,0.01125));
#490=CARTESIAN_POINT('',(0.00139642400437689,-0.0017,0.011252));
#491=CARTESIAN_POINT('',(0.00139642400437689,-0.0017,0.0015));
#492=CARTESIAN_POINT('',(0.,-0.0017,0.0015));
#493=CARTESIAN_POINT('',(0.,1.7347234759768E-18,0.0015));
#494=CARTESIAN_POINT('',(-7.58941520739853E-19,2.16840434497101E-19,0.0015));
#495=CARTESIAN_POINT('',(0.,1.7347234759768E-18,0.01125));
#496=CARTESIAN_POINT('',(-7.58941520739853E-19,2.16840434497101E-19,0.01125));
#497=CARTESIAN_POINT('',(-7.58941520739853E-19,2.16840434497101E-19,0.01125));
#498=CARTESIAN_POINT('',(-7.58941520739853E-19,2.16840434497101E-19,0.));
#499=CARTESIAN_POINT('',(-0.0022,2.16840434497101E-19,0.));
#500=CARTESIAN_POINT('',(0.,1.7347234759768E-18,0.018156));
#501=CARTESIAN_POINT('',(0.,1.35323471305783E-19,0.018156));
#502=CARTESIAN_POINT('',(0.00221,1.35323471305783E-19,0.018156));
#503=CARTESIAN_POINT('',(0.,0.,0.020256));
#504=CARTESIAN_POINT('',(0.,2.4492935982947E-19,0.020256));
#505=CARTESIAN_POINT('',(0.004,2.4492935982947E-19,0.020256));
#506=CARTESIAN_POINT('',(0.,1.35323471305783E-19,0.020256));
#507=CARTESIAN_POINT('',(0.00221,1.35323471305783E-19,0.020256));
#508=CARTESIAN_POINT('',(0.,2.4492935982947E-19,0.020256));
#509=CARTESIAN_POINT('',(0.,2.4492935982947E-19,0.016756));
#510=CARTESIAN_POINT('',(0.004,2.4492935982947E-19,0.016756));
#511=CARTESIAN_POINT('',(0.,1.35323471305783E-19,0.020256));
#512=CARTESIAN_POINT('',(0.,1.7347234759768E-18,0.016756));
#513=CARTESIAN_POINT('',(0.,2.60512990348621E-19,0.016756));
#514=CARTESIAN_POINT('',(0.0042545,2.60512990348621E-19,0.016756));
#515=CARTESIAN_POINT('',(0.,2.60512990348621E-19,0.016756));
#516=CARTESIAN_POINT('',(0.,2.60512990348621E-19,0.00508));
#517=CARTESIAN_POINT('',(0.0042545,2.60512990348621E-19,0.00508));
#518=CARTESIAN_POINT('',(0.,0.,0.));
#519=CARTESIAN_POINT('',(-1.7347234759768E-18,0.,0.));
#520=CARTESIAN_POINT('',(-0.00404288263495245,0.0064,0.));
#521=CARTESIAN_POINT('',(-0.0064,0.00404288263495245,0.));
#522=CARTESIAN_POINT('',(0.,0.0064,0.));
#523=CARTESIAN_POINT('',(0.00404288263495245,0.0064,0.));
#524=CARTESIAN_POINT('',(4.33680868994202E-19,8.67361737988404E-19,0.));
#525=CARTESIAN_POINT('',(0.0064,0.00404288263495244,0.));
#526=CARTESIAN_POINT('',(0.0064,-8.67361737988404E-19,0.));
#527=CARTESIAN_POINT('',(0.0064,-0.00404288263495246,0.));
#528=CARTESIAN_POINT('',(1.0842021724855E-17,-8.67361737988404E-18,0.));
#529=CARTESIAN_POINT('',(0.00404288263495246,-0.0064,0.));
#530=CARTESIAN_POINT('',(0.,-0.0064,0.));
#531=CARTESIAN_POINT('',(-0.00404288263495245,-0.0064,0.));
#532=CARTESIAN_POINT('',(1.04083408558608E-17,9.54097911787244E-18,0.));
#533=CARTESIAN_POINT('',(-0.0064,-0.00404288263495243,0.));
#534=CARTESIAN_POINT('',(-0.0064,8.67361737988404E-19,0.));
#535=CARTESIAN_POINT('',(0.,0.,0.00508));
#536=CARTESIAN_POINT('',(-1.7347234759768E-18,0.,0.00508));
#537=CARTESIAN_POINT('',(-0.00404288263495245,0.0064,0.00508));
#538=CARTESIAN_POINT('',(-0.0064,0.00404288263495245,0.00508));
#539=CARTESIAN_POINT('',(-0.0064,8.67361737988404E-19,0.00508));
#540=CARTESIAN_POINT('',(-0.0064,-0.00404288263495243,0.00508));
#541=CARTESIAN_POINT('',(1.04083408558608E-17,9.54097911787244E-18,0.00508));
#542=CARTESIAN_POINT('',(-0.00404288263495245,-0.0064,0.00508));
#543=CARTESIAN_POINT('',(0.,-0.0064,0.00508));
#544=CARTESIAN_POINT('',(0.00404288263495246,-0.0064,0.00508));
#545=CARTESIAN_POINT('',(1.0842021724855E-17,-8.67361737988404E-18,0.00508));
#546=CARTESIAN_POINT('',(0.0064,-0.00404288263495246,0.00508));
#547=CARTESIAN_POINT('',(0.0064,-8.67361737988404E-19,0.00508));
#548=CARTESIAN_POINT('',(0.0064,0.00404288263495244,0.00508));
#549=CARTESIAN_POINT('',(4.33680868994202E-19,8.67361737988404E-19,0.00508));
#550=CARTESIAN_POINT('',(0.00404288263495245,0.0064,0.00508));
#551=CARTESIAN_POINT('',(0.,0.0064,0.00508));
#552=CARTESIAN_POINT('',(0.,0.0064,0.00508));
#553=CARTESIAN_POINT('',(-0.00404288263495244,0.0064,0.00508));
#554=CARTESIAN_POINT('',(0.00404288263495245,0.0064,0.00508));
#555=CARTESIAN_POINT('',(1.04083408558608E-17,9.54097911787244E-18,0.00508));
#556=CARTESIAN_POINT('',(0.0064,0.00404288263495244,0.00508));
#557=CARTESIAN_POINT('',(0.0064,-8.67361737988404E-19,0.00508));
#558=CARTESIAN_POINT('',(0.0064,-0.00404288263495245,0.00508));
#559=CARTESIAN_POINT('',(1.04083408558608E-17,9.54097911787244E-18,0.00508));
#560=CARTESIAN_POINT('',(0.00404288263495245,-0.0064,0.00508));
#561=CARTESIAN_POINT('',(0.,-0.0064,0.00508));
#562=CARTESIAN_POINT('',(-0.00404288263495245,-0.0064,0.00508));
#563=CARTESIAN_POINT('',(1.04083408558608E-17,9.54097911787244E-18,0.00508));
#564=CARTESIAN_POINT('',(-0.0064,-0.00404288263495245,0.00508));
#565=CARTESIAN_POINT('',(-0.0064,8.67361737988404E-19,0.00508));
#566=CARTESIAN_POINT('',(-0.0064,0.00404288263495245,0.00508));
#567=CARTESIAN_POINT('',(1.04083408558608E-17,9.54097911787244E-18,0.00508));
#568=MECHANICAL_DESIGN_GEOMETRIC_PRESENTATION_REPRESENTATION('',(#324),
#569);
#569=(
GEOMETRIC_REPRESENTATION_CONTEXT(3)
GLOBAL_UNCERTAINTY_ASSIGNED_CONTEXT((#570))
GLOBAL_UNIT_ASSIGNED_CONTEXT((#573,#572,#571))
REPRESENTATION_CONTEXT('Hub','TOP_LEVEL_ASSEMBLY_PART')
);
#570=UNCERTAINTY_MEASURE_WITH_UNIT(LENGTH_MEASURE(1.E-6),#573,
'DISTANCE_ACCURACY_VALUE','Maximum Tolerance applied to model');
#571=(
NAMED_UNIT(*)
SI_UNIT($,.STERADIAN.)
SOLID_ANGLE_UNIT()
);
#572=(
NAMED_UNIT(*)
PLANE_ANGLE_UNIT()
SI_UNIT($,.RADIAN.)
);
#573=(
LENGTH_UNIT()
NAMED_UNIT(*)
SI_UNIT($,.METRE.)
);
#574=PRODUCT_DEFINITION_SHAPE('','',#575);
#575=PRODUCT_DEFINITION('','',#577,#576);
#576=PRODUCT_DEFINITION_CONTEXT('',#583,'design');
#577=PRODUCT_DEFINITION_FORMATION_WITH_SPECIFIED_SOURCE('','',#579,
 .NOT_KNOWN.);
#578=PRODUCT_RELATED_PRODUCT_CATEGORY('','',(#579));
#579=PRODUCT('Hub','Hub','Hub',(#581));
#580=PRODUCT_CATEGORY('','');
#581=PRODUCT_CONTEXT('',#583,'mechanical');
#582=APPLICATION_PROTOCOL_DEFINITION('international standard',
'ap242_managed_model_based_3d_engineering',2020,#583);
#583=APPLICATION_CONTEXT('managed model based 3d engineering');
ENDSEC;
END-ISO-10303-21;
